<svg width="33" height="28" viewBox="0 0 33 28" fill="none" xmlns="http://www.w3.org/2000/svg">
<path d="M12.0507 7.57691L10.1843 9.44331C9.59907 10.0286 9.5985 10.9773 10.1831 11.5633L24.3501 25.7651C24.9356 26.3521 25.8864 26.3527 26.4727 25.7664L28.3612 23.8778M12.0507 7.57691L28.3612 23.8778M12.0507 7.57691L18.4595 1.15239C18.7223 0.888938 19.1736 0.995846 19.3326 1.3323C20.6704 4.16373 23.4032 4.34315 25.0423 3.98168C25.3206 3.92032 25.6117 4.07239 25.6898 4.34642L28.7326 15.0226C28.7792 15.1858 28.8665 15.3346 28.9864 15.4547L30.057 16.528C31.6144 18.0893 31.6144 20.6166 30.057 22.1779L28.3612 23.8778" stroke="#000127" stroke-width="2"/>
<path d="M6 26.1844H17.875M3.5 21.1844H12.875M1 16.1844H7.875" stroke="#000127" stroke-width="2" stroke-linecap="round"/>
</svg>
