<svg width="24" height="24" viewBox="0 0 24 24" fill="none" xmlns="http://www.w3.org/2000/svg">
<path d="M3 11L12 4L21 11" fill="#000127"/>
<path d="M3 11L12 4L21 11" stroke="#000127" stroke-width="2" stroke-linecap="round" stroke-linejoin="round"/>
<path fill-rule="evenodd" clip-rule="evenodd" d="M11.3818 3.21393C11.7444 2.92902 12.2556 2.92902 12.6182 3.21393L19.6182 8.71393C19.8592 8.90352 20 9.19336 20 9.50006V21.0001C19.9999 21.5523 19.5522 22.0001 19 22.0001H14C13.4478 22.0001 13.0001 21.5523 13 21.0001V17.0001H11V21.0001C10.9999 21.5523 10.5522 22.0001 10 22.0001H5C4.44778 22.0001 4.0001 21.5523 4 21.0001V9.50006L4.00684 9.3858C4.03712 9.12238 4.17098 8.87977 4.38184 8.71393L11.3818 3.21393Z" fill="#000127"/>
</svg>
