<svg width="15" height="15" viewBox="0 0 15 15" fill="none" xmlns="http://www.w3.org/2000/svg">
<path d="M1.875 3.125H8.75M1.875 3.125L3.125 1.875M1.875 3.125L3.125 4.375M8.75 3.125L7.5 4.375M8.75 3.125L7.5 1.875M11.875 6.25V13.125M11.875 6.25L13.125 7.5M11.875 6.25L10.625 7.5M11.875 13.125L10.625 11.875M11.875 13.125L13.125 11.875M1.875 7.5C1.875 7.16848 2.0067 6.85054 2.24112 6.61612C2.47554 6.3817 2.79348 6.25 3.125 6.25H7.5C7.83152 6.25 8.14946 6.3817 8.38388 6.61612C8.6183 6.85054 8.75 7.16848 8.75 7.5V11.875C8.75 12.2065 8.6183 12.5245 8.38388 12.7589C8.14946 12.9933 7.83152 13.125 7.5 13.125H3.125C2.79348 13.125 2.47554 12.9933 2.24112 12.7589C2.0067 12.5245 1.875 12.2065 1.875 11.875V7.5Z" stroke="#B7FC06" stroke-linecap="round" stroke-linejoin="round"/>
</svg>
