<svg width="11" height="12" viewBox="0 0 11 12" fill="none" xmlns="http://www.w3.org/2000/svg">
<path d="M9.29032 8.51613C9.29032 8.22793 9.16123 7.97168 8.96071 7.79419C9.04607 7.67013 9.09678 7.52013 9.09678 7.35852V7.25497C9.09678 7.17194 9.08342 7.09006 9.0571 7.01129L8.23432 4.54258C8.02316 3.90929 7.43284 3.48387 6.76549 3.48387H6.12484C6.52026 3.16432 6.77419 2.676 6.77419 2.12903V1.50077C6.77419 0.673161 6.10084 0 5.27342 0H4.7911C3.96348 0 3.29032 0.673161 3.29032 1.50077V2.12903C3.29032 2.676 3.54426 3.16432 3.93968 3.48387H3.29903C2.63168 3.48387 2.04136 3.90929 1.83019 4.54258L1.00742 7.0111C0.981097 7.08987 0.967742 7.17194 0.967742 7.25477V7.35832C0.967742 7.52013 1.01826 7.67013 1.10381 7.79419C0.90329 7.97168 0.774194 8.22793 0.774194 8.51613H0V11.6129H3.09677V12H4.83871H5.03226H6.96774V11.6129H10.0645V8.51613H9.29032ZM8.90323 8.51613H7.74194C7.74194 8.32355 7.83736 8.15361 7.98213 8.04794C8.08665 8.1 8.20355 8.12903 8.32626 8.12903C8.44761 8.12903 8.56103 8.09826 8.66323 8.04813C8.808 8.15381 8.90323 8.32355 8.90323 8.51613ZM8.68994 7.13381C8.7031 7.1729 8.70968 7.21374 8.70968 7.25477V7.35832C8.70968 7.45045 8.67561 7.53406 8.62123 7.60026C8.52658 7.56948 8.42748 7.54839 8.32258 7.54839C8.21903 7.54839 8.12129 7.5691 8.02761 7.59929C8.0042 7.57006 7.98465 7.53716 7.97013 7.50097L7.24587 5.69032L8.07136 5.27768L8.68994 7.13381ZM7.68968 7.78994C7.48626 7.96742 7.35484 8.22561 7.35484 8.51613H6.96774V6.03755L7.61052 7.64477C7.63142 7.69703 7.6591 7.74465 7.68968 7.78994ZM3.67742 1.50058C3.67742 0.886645 4.17697 0.387097 4.7911 0.387097H5.27342C5.88755 0.387097 6.3871 0.886645 6.3871 1.50077V1.57568C6.282 1.48703 6.18755 1.38406 6.108 1.26465C5.98413 1.07865 5.77703 0.967742 5.55348 0.967742H4.51084C4.28748 0.967742 4.08019 1.07865 3.94994 1.27452C3.87426 1.38813 3.78136 1.48877 3.67742 1.57606V1.50058ZM3.67742 2.12903V2.046C3.91413 1.90645 4.12007 1.71697 4.27897 1.4789C4.33065 1.40129 4.41736 1.35484 4.51103 1.35484H5.55368C5.64716 1.35484 5.73407 1.40129 5.79252 1.48916C5.94523 1.71813 6.15058 1.90665 6.3871 2.046V2.12903C6.3871 2.87594 5.77916 3.48387 5.03226 3.48387C4.28536 3.48387 3.67742 2.87594 3.67742 2.12903ZM5.75884 3.87097C5.652 4.09587 5.36826 4.25806 5.03226 4.25806C4.69626 4.25806 4.41252 4.09587 4.30568 3.87097H5.03226H5.75884ZM1.35484 7.25497C1.35484 7.21374 1.36142 7.1729 1.37458 7.13381L1.99316 5.27768L2.81865 5.69052L2.09439 7.50097C2.07987 7.53716 2.06032 7.57026 2.03671 7.59948C1.94323 7.5691 1.84548 7.54839 1.74194 7.54839C1.63703 7.54839 1.53794 7.56948 1.44329 7.60045C1.3889 7.53426 1.35484 7.45064 1.35484 7.35852V7.25497ZM1.40129 8.04813C1.50368 8.09826 1.6169 8.12903 1.73826 8.12903C1.86097 8.12903 1.97787 8.1 2.08219 8.04794C2.22716 8.15361 2.32258 8.32355 2.32258 8.51613H1.16129C1.16129 8.32355 1.25652 8.15381 1.40129 8.04813ZM3.09677 11.2258H0.387097V8.90323H0.774194V9.29032H1.16129V8.90323H2.32258V9.29032H2.70968V8.90323H3.09677V11.2258ZM3.09677 8.51613H2.70968C2.70968 8.22542 2.57826 7.96742 2.37465 7.78994C2.40523 7.74465 2.4329 7.69703 2.454 7.64458L3.09677 6.03735V8.51613ZM4.83871 11.6129H3.48387V11.2258H4.83871V11.6129ZM6.58065 11.6129H5.22581V11.2258H6.58065V11.6129ZM6.58065 10.8387H5.22581V8.70968H4.83871V10.8387H3.48387V8.88368C3.92497 8.79368 4.25807 8.40271 4.25807 7.93548H5.80645C5.80645 8.40271 6.13955 8.79368 6.58065 8.88368V10.8387ZM3.48387 8.48052V7.93548H3.87097C3.87097 8.18748 3.70858 8.40039 3.48387 8.48052ZM6.58065 8.48052C6.35574 8.40039 6.19355 8.18748 6.19355 7.93548H6.58065V8.48052ZM6.58065 4.83871V7.54839H3.48387V4.83871H3.09677V4.9949L2.96284 5.32955L2.11665 4.90645L2.19716 4.6649C2.35568 4.18994 2.79852 3.87097 3.29903 3.87097H3.89439C4.00219 4.31206 4.47136 4.64516 5.03226 4.64516C5.59316 4.64516 6.06213 4.31206 6.17013 3.87097H6.76549C7.266 3.87097 7.70884 4.18994 7.86716 4.6651L7.94768 4.90664L7.10149 5.32974L6.96774 4.9949V4.83871H6.58065ZM9.67742 11.2258H6.96774V8.90323H7.35484V9.29032H7.74194V8.90323H8.90323V9.29032H9.29032V8.90323H9.67742V11.2258Z" fill="#B7FC06"/>
</svg>
