<svg width="24" height="24" viewBox="0 0 24 24" fill="none" xmlns="http://www.w3.org/2000/svg">
<g opacity="0.6">
<path d="M3 11L12 4L21 11" stroke="white" stroke-width="2" stroke-linecap="round" stroke-linejoin="round"/>
<mask id="path-2-inside-1_692_363" fill="white">
<path fill-rule="evenodd" clip-rule="evenodd" d="M11.3818 3.21368C11.7444 2.92877 12.2556 2.92877 12.6182 3.21368L19.6182 8.71368C19.8592 8.90327 20 9.19312 20 9.49981V20.9998C19.9999 21.552 19.5522 21.9998 19 21.9998H14C13.4478 21.9998 13.0001 21.552 13 20.9998V16.9998H11V20.9998C10.9999 21.552 10.5522 21.9998 10 21.9998H5C4.44778 21.9998 4.0001 21.552 4 20.9998V9.49981L4.00684 9.38556C4.03712 9.12214 4.17098 8.87952 4.38184 8.71368L11.3818 3.21368Z"/>
</mask>
<path fill-rule="evenodd" clip-rule="evenodd" d="M12.6182 3.21368L11.3825 4.78632L12.6182 3.21368ZM19.6182 8.71368L20.8546 7.14166L20.8538 7.14105L19.6182 8.71368ZM20 20.9998L22 21.0002V20.9998H20ZM13 20.9998H11V21.0002L13 20.9998ZM13 16.9998H15C15 15.8952 14.1046 14.9998 13 14.9998V16.9998ZM11 16.9998V14.9998C9.89543 14.9998 9 15.8952 9 16.9998H11ZM11 20.9998L13 21.0002V20.9998H11ZM4 20.9998H2V21.0002L4 20.9998ZM4 9.49981L2.00357 9.38037C2.00119 9.42014 2 9.45997 2 9.49981H4ZM4.00684 9.38556L2.01993 9.15711C2.01576 9.19335 2.01258 9.2297 2.01041 9.26611L4.00684 9.38556ZM4.38184 8.71368L3.14619 7.14104L3.14541 7.14166L4.38184 8.71368ZM11.3818 3.21368L12.6175 4.78632C12.2549 5.07123 11.7451 5.07123 11.3825 4.78632L12.6182 3.21368L13.8538 1.64104C12.766 0.786318 11.234 0.786318 10.1462 1.64104L11.3818 3.21368ZM12.6182 3.21368L11.3825 4.78632L18.3825 10.2863L19.6182 8.71368L20.8538 7.14105L13.8538 1.64104L12.6182 3.21368ZM19.6182 8.71368L18.3817 10.2857C18.1407 10.0961 18 9.80646 18 9.49981H20H22C22 8.57977 21.5778 7.71046 20.8546 7.14166L19.6182 8.71368ZM20 9.49981H18V20.9998H20H22V9.49981H20ZM20 20.9998L18 20.9995C18.0001 20.4477 18.4473 19.9998 19 19.9998V21.9998V23.9998C20.6572 23.9998 21.9997 22.6563 22 21.0002L20 20.9998ZM19 21.9998V19.9998H14V21.9998V23.9998H19V21.9998ZM14 21.9998V19.9998C14.5527 19.9998 14.9999 20.4477 15 20.9995L13 20.9998L11 21.0002C11.0003 22.6563 12.3428 23.9998 14 23.9998V21.9998ZM13 20.9998H15V16.9998H13H11V20.9998H13ZM13 16.9998V14.9998H11V16.9998V18.9998H13V16.9998ZM11 16.9998H9V20.9998H11H13V16.9998H11ZM11 20.9998L9 20.9995C9.0001 20.4477 9.44729 19.9998 10 19.9998V21.9998V23.9998C11.6572 23.9998 12.9997 22.6563 13 21.0002L11 20.9998ZM10 21.9998V19.9998H5V21.9998V23.9998H10V21.9998ZM5 21.9998V19.9998C5.55271 19.9998 5.9999 20.4477 6 20.9995L4 20.9998L2 21.0002C2.0003 22.6563 3.34285 23.9998 5 23.9998V21.9998ZM4 20.9998H6V9.49981H4H2V20.9998H4ZM4 9.49981L5.99643 9.61926L6.00327 9.505L4.00684 9.38556L2.01041 9.26611L2.00357 9.38037L4 9.49981ZM4.00684 9.38556L5.99375 9.61401C5.96363 9.87593 5.83045 10.1188 5.61826 10.2857L4.38184 8.71368L3.14541 7.14166C2.51151 7.64024 2.11062 8.36835 2.01993 9.15711L4.00684 9.38556ZM4.38184 8.71368L5.61748 10.2863L12.6175 4.78632L11.3818 3.21368L10.1462 1.64104L3.14619 7.14105L4.38184 8.71368Z" fill="white" mask="url(#path-2-inside-1_692_363)"/>
</g>
</svg>
