<svg width="25" height="24" viewBox="0 0 25 24" fill="none" xmlns="http://www.w3.org/2000/svg">
<path d="M19.4679 20.4519L8.55805 9.51523C7.9735 8.92924 7.97407 7.9805 8.55934 7.39522L9.84057 6.11397L14.8531 1.08916C15.1159 0.825705 15.5676 0.932828 15.7378 1.26373C16.803 3.33418 18.8416 3.51247 20.1321 3.259C20.4117 3.20408 20.7024 3.35613 20.7805 3.63016L23.1719 12.0207C23.2184 12.184 23.3058 12.3327 23.4256 12.4529L23.682 12.7098C25.2394 14.2711 25.2394 16.7984 23.682 18.3597L22.889 19.1547L21.5905 20.4531C21.0043 21.0394 20.0535 21.0389 19.4679 20.4519Z" fill="#B7FC06"/>
<path d="M5 21H14.5M3 17H10.5M1 13H6.5" stroke="#B7FC06" stroke-width="2" stroke-linecap="round"/>
</svg>
