<svg width="24" height="24" viewBox="0 0 24 24" fill="none" xmlns="http://www.w3.org/2000/svg">
<path d="M15.3333 3L22 5.22222V10.7778H18.6667V19.6667C18.6667 19.9614 18.5496 20.244 18.3412 20.4523C18.1329 20.6607 17.8502 20.7778 17.5556 20.7778H6.44444C6.14976 20.7778 5.86714 20.6607 5.65877 20.4523C5.4504 20.244 5.33333 19.9614 5.33333 19.6667V10.7778H2V5.22222L8.66667 3C8.66667 3.88406 9.01786 4.7319 9.64298 5.35702C10.2681 5.98214 11.1159 6.33333 12 6.33333C12.8841 6.33333 13.7319 5.98214 14.357 5.35702C14.9821 4.7319 15.3333 3.88406 15.3333 3Z" fill="#B7FC06"/>
<path d="M10.3333 10.7778H13.111L11.4444 16.3334" stroke="#000127" stroke-width="2" stroke-linecap="round" stroke-linejoin="round"/>
</svg>
