<svg width="30" height="14" viewBox="0 0 30 14" fill="none" xmlns="http://www.w3.org/2000/svg">
<g opacity="0.6">
<path d="M30 2.39493L24.2909 13.3364L21.183 11.6051L23.6133 6.94773L13.1077 14L10.5915 11.6051L13.0218 6.94773L2.51619 14L0 11.6051L2.9869 5.88C3.79099 6.7508 4.92396 7.294 6.17799 7.294C8.0265 7.294 9.61301 6.1152 10.2689 4.44547L16.8923 0L19.4085 2.39493L16.9782 7.05227L27.4838 0L30 2.39493Z" fill="white"/>
<path d="M8.82695 2.7356C8.82695 4.24667 7.64159 5.4712 6.17886 5.4712C4.71613 5.4712 3.53076 4.24667 3.53076 2.7356C3.53076 1.22453 4.71613 0 6.17886 0C7.64159 0 8.82695 1.22547 8.82695 2.7356Z" fill="white"/>
</g>
</svg>
