<svg width="30" height="30" viewBox="0 0 30 30" fill="none" xmlns="http://www.w3.org/2000/svg">
<path d="M9.77148 16.0908L13.6592 20.0967L13.6602 21.4893L12.7812 22.3936L13.6621 23.3008V24.6943L12.1064 26.2959H10.6719L8.66602 24.2305L6.27246 26.6963H4.83789L3.28223 25.0947V23.7021L5.7168 21.1924L3.67188 19.0869V17.6934L5.22754 16.0918H6.66211L7.49902 16.9531L8.33594 16.0908H9.77148ZM8.50293 4.00293L9.21973 4.30664L21.499 16.9541L22.3379 16.0918H23.7725L25.3291 17.6934V19.0869L23.2832 21.1934L25.7178 23.7021V25.0947L24.1621 26.6963H22.7275L20.333 24.2305L18.3301 26.2959H16.8945L15.3389 24.6943L15.3379 23.3008L16.2168 22.3945L3.88672 9.69629L3.60352 9L3.60156 5.00098L4.60254 4L8.50293 4.00293ZM25.4014 8.99316L25.1191 9.69043L20.6611 14.2803H19.2266L15.3369 10.2764V8.88281L19.7852 4.30371L20.5039 4L24.4004 4.00293L25.3994 5.00293L25.4014 8.99316Z" stroke="#000127" stroke-width="2" stroke-linejoin="bevel"/>
</svg>
