<svg width="12" height="12" viewBox="0 0 12 12" fill="none" xmlns="http://www.w3.org/2000/svg">
<path d="M8.7002 6.5C9.2836 6.50005 9.84333 6.732 10.2559 7.14453C10.6683 7.55709 10.9004 8.11681 10.9004 8.7002C10.9003 9.2836 10.6684 9.84333 10.2559 10.2559C9.84333 10.6684 9.2836 10.9003 8.7002 10.9004C8.11681 10.9004 7.55709 10.6683 7.14453 10.2559C6.732 9.84333 6.50005 9.2836 6.5 8.7002C6.5 8.11672 6.73195 7.55711 7.14453 7.14453C7.55711 6.73195 8.11672 6.5 8.7002 6.5Z" stroke="#B7FC06"/>
<path d="M7.80005 8.585L8.60005 9.425L10.2 7.625" stroke="#B7FC06" stroke-linecap="round" stroke-linejoin="round"/>
<path d="M5.40039 1.69995C5.90412 1.70005 6.38695 1.90043 6.74316 2.25659C7.09948 2.61291 7.2998 3.09643 7.2998 3.60034C7.2997 4.10411 7.09939 4.58689 6.74316 4.94312C6.38694 5.29934 5.90416 5.49965 5.40039 5.49976C4.89648 5.49976 4.41296 5.29943 4.05664 4.94312C3.70047 4.5869 3.5001 4.10407 3.5 3.60034C3.5 3.09643 3.70032 2.61291 4.05664 2.25659C4.41296 1.90027 4.89648 1.69995 5.40039 1.69995Z" stroke="#B7FC06"/>
<path d="M5.39995 6.90002H3.8109H2.22185C1.65927 6.90002 1.19995 7.39421 1.19995 8.01431C1.19995 8.95588 1.62366 9.66735 2.28594 10.1298C2.93804 10.585 3.817 10.8 4.76057 10.8C4.96979 10.8 5.17495 10.7894 5.37604 10.7683" stroke="#B7FC06" stroke-linecap="round"/>
</svg>
