<svg width="30" height="30" viewBox="0 0 30 30" fill="none" xmlns="http://www.w3.org/2000/svg">
<path d="M23.9807 10.2246C25.0805 10.2177 26.0884 10.2295 26.761 10.3281H26.7629C27.7756 10.4783 28.1916 11.2951 28.3401 11.9111L28.3879 12.1611V12.1621C28.5397 13.217 28.5292 14.1512 28.427 14.8877C28.3761 15.2544 28.3 15.588 28.2024 15.8711C28.1286 16.085 28.0154 16.3476 27.8372 16.5703C27.2841 17.4932 26.3316 18.3161 25.3958 18.8789C24.9012 19.1763 24.3749 19.4236 23.8645 19.5811C23.4101 19.7212 22.8949 19.8104 22.3987 19.7441C20.618 19.7437 19.6283 19.7235 19.012 19.7695C18.8691 19.7802 18.7672 19.793 18.6946 19.8066L17.6946 22.3936C17.6862 22.4152 17.6771 22.437 17.6672 22.458C16.8439 24.2131 13.9952 27.6518 9.17798 27.209C4.41017 26.7704 2.31614 22.9931 1.8479 21.1094C1.39311 19.8116 1.04916 16.7301 3.05786 13.8359C5.10573 10.8845 8.59976 10.0796 10.6995 10.251H13.8264L13.9944 10.2656C14.2166 10.3035 14.457 10.3639 14.6985 10.4854C14.9452 10.6095 15.1459 10.7737 15.3235 10.9619C15.5905 11.245 15.8558 11.6471 16.1663 12.1357C16.347 12.152 16.5942 12.1592 16.8909 12.1553C17.2303 12.1508 17.5765 12.1363 17.9094 12.126C17.9612 12.1244 18.0147 12.1235 18.0686 12.1221C18.0753 12.0874 18.085 12.0492 18.093 12.0059C18.112 11.9029 18.1394 11.757 18.177 11.6133C18.2509 11.3312 18.4121 10.8684 18.8713 10.5508C19.3 10.2544 19.8046 10.2106 20.2805 10.2598C21.5997 10.2592 22.8474 10.2318 23.9807 10.2246ZM23.9934 12.2246C22.9074 12.2315 21.5646 12.2598 20.2385 12.2598C20.1966 12.2598 20.1541 12.2572 20.1125 12.252C20.1028 12.2507 20.0932 12.25 20.0842 12.249C20.0776 12.2829 20.0684 12.3219 20.0598 12.3682C20.0404 12.4736 20.0141 12.6209 19.9758 12.7705C19.8983 13.0731 19.7491 13.4915 19.385 13.8447C19.1726 14.0507 18.8795 14.1526 18.5852 14.1221C18.5075 14.114 18.3119 14.1144 17.9719 14.125C17.6679 14.1345 17.2804 14.1495 16.9172 14.1543C16.5594 14.159 16.1647 14.1549 15.8342 14.1133C15.6737 14.0931 15.4715 14.0574 15.2795 13.9834C15.1518 13.9341 14.8159 13.7885 14.6184 13.4297C14.1997 12.7687 14.0133 12.4877 13.8684 12.334C13.8408 12.3047 13.823 12.2894 13.8137 12.2822C13.8056 12.276 13.8012 12.2735 13.7991 12.2725C13.7951 12.2706 13.774 12.2637 13.7151 12.251H10.6721C10.6415 12.251 10.6108 12.2499 10.5803 12.2471C8.99736 12.1007 6.25226 12.7408 4.70142 14.9756V14.9766C3.21466 17.1187 3.41628 19.3767 3.68872 20.3076L3.74341 20.4756L3.77856 20.5918C4.09795 21.9494 5.69601 24.8807 9.36157 25.2178C13.0119 25.5532 15.2157 22.9528 15.8469 21.627L16.9094 18.8789C16.923 18.8439 16.9389 18.8096 16.9563 18.7764C17.1366 18.432 17.4119 18.1642 17.7971 17.9971C18.1261 17.8543 18.4988 17.8016 18.8625 17.7744C19.2238 17.7474 19.6923 17.74 20.2854 17.7393L22.4602 17.7451L22.554 17.749C22.585 17.752 22.6161 17.7569 22.6467 17.7627C22.7264 17.7779 22.9319 17.7759 23.2756 17.6699C23.6017 17.5693 23.9791 17.3968 24.3645 17.165C25.1566 16.6888 25.8369 16.0516 26.1526 15.4932L26.2258 15.3809C26.2368 15.3664 26.2492 15.3528 26.261 15.3389C26.2662 15.3288 26.2864 15.2934 26.3118 15.2197C26.358 15.0855 26.4081 14.8823 26.4456 14.6123C26.5202 14.0742 26.5354 13.3295 26.4084 12.4473V12.4463C26.399 12.3827 26.3857 12.3316 26.3723 12.2939C25.8668 12.2325 25.053 12.2179 23.9934 12.2246Z" fill="#000127"/>
<path d="M10 21.25C10.663 21.25 11.2989 20.9866 11.7678 20.5178C12.2366 20.0489 12.5 19.413 12.5 18.75C12.5 18.087 12.2366 17.4511 11.7678 16.9822C11.2989 16.5134 10.663 16.25 10 16.25C9.33696 16.25 8.70107 16.5134 8.23223 16.9822C7.76339 17.4511 7.5 18.087 7.5 18.75C7.5 19.413 7.76339 20.0489 8.23223 20.5178C8.70107 20.9866 9.33696 21.25 10 21.25Z" stroke="#000127" stroke-width="2" stroke-linejoin="round"/>
<path d="M16.8675 6.25125V3.75M13.7475 7.5025L12.5 6.2525M19.9862 7.5025L21.2337 6.2525" stroke="#000127" stroke-width="2" stroke-linecap="round" stroke-linejoin="round"/>
</svg>
