<svg width="12" height="12" viewBox="0 0 12 12" fill="none" xmlns="http://www.w3.org/2000/svg">
<g clip-path="url(#clip0_304_2237)">
<path d="M5.15332 5.21777H6.86621C7.08818 5.21779 7.25313 5.25855 7.39062 5.33203C7.52822 5.4056 7.66516 5.52572 7.80762 5.72656V5.72754L8.95996 7.41699L9.0791 7.5918H11.3066C11.4074 7.5918 11.4446 7.62387 11.459 7.63965C11.4795 7.66215 11.4986 7.70331 11.498 7.75977C11.4974 7.81671 11.4767 7.86389 11.4521 7.8916C11.4339 7.91219 11.4035 7.93545 11.335 7.93555H9.02441C8.97672 7.93553 8.93158 7.92633 8.89648 7.91113C8.88052 7.90422 8.86679 7.89689 8.85547 7.8877L8.82715 7.85547L8.81934 7.84375L7.9375 6.58594L7.21191 5.5498L7.20996 6.81445L7.20605 9.56543H4.84473L4.84082 6.81445L4.83984 5.5498L4.11328 6.58594L3.23242 7.84375H3.23145L3.22656 7.85156C3.21046 7.87572 3.18746 7.8951 3.15332 7.91016C3.11662 7.92627 3.07073 7.93555 3.02637 7.93555H0.716797C0.640119 7.93554 0.605725 7.90955 0.586914 7.88867C0.562118 7.86095 0.542677 7.81451 0.541992 7.75879C0.541323 7.70329 0.559458 7.6624 0.580078 7.63965C0.594678 7.62359 0.631484 7.59183 0.730469 7.5918H2.94434L3.06348 7.41699L4.2041 5.73828C4.34928 5.54017 4.4885 5.41467 4.63086 5.33691C4.77089 5.2605 4.93673 5.21777 5.15332 5.21777ZM6.01172 2.43945C6.50626 2.43945 6.89746 2.83338 6.89746 3.3252C6.89732 3.81597 6.50255 4.21094 6.01172 4.21094C5.52684 4.21082 5.1306 3.82175 5.12598 3.3252C5.12598 2.83437 5.5209 2.43957 6.01172 2.43945Z" stroke="#B7FC06" stroke-width="0.8"/>
<path d="M9.72656 5.86133C9.85514 5.86133 9.95898 5.96517 9.95898 6.09375C9.95898 6.22233 9.85514 6.32617 9.72656 6.32617C9.59798 6.32617 9.49414 6.22233 9.49414 6.09375C9.49414 5.96517 9.59798 5.86133 9.72656 5.86133Z" stroke="#B7FC06" stroke-width="0.8"/>
<path d="M1.66406 5.86133C1.79264 5.86133 1.89648 5.96517 1.89648 6.09375C1.89648 6.22233 1.79264 6.32617 1.66406 6.32617C1.53548 6.32617 1.43164 6.22233 1.43164 6.09375C1.43164 5.96517 1.53548 5.86133 1.66406 5.86133Z" stroke="#B7FC06" stroke-width="0.8"/>
<path d="M11.2734 5.86133C11.402 5.86133 11.5059 5.96517 11.5059 6.09375C11.5059 6.22233 11.402 6.32617 11.2734 6.32617C11.1449 6.32617 11.041 6.22233 11.041 6.09375C11.041 5.96517 11.1449 5.86133 11.2734 5.86133Z" stroke="#B7FC06" stroke-width="0.8"/>
<path d="M10.5234 4.4082C10.652 4.4082 10.7559 4.51205 10.7559 4.64062C10.7559 4.7692 10.652 4.87305 10.5234 4.87305C10.3949 4.87305 10.291 4.7692 10.291 4.64062C10.291 4.51205 10.3949 4.4082 10.5234 4.4082Z" stroke="#B7FC06" stroke-width="0.8"/>
</g>
<defs>
<clipPath id="clip0_304_2237">
<rect width="12" height="12" fill="white"/>
</clipPath>
</defs>
</svg>
