<svg width="24" height="24" viewBox="0 0 24 24" fill="none" xmlns="http://www.w3.org/2000/svg">
<path d="M16.1904 9.00781C18.3194 9.00781 20.359 8.91671 21.293 9.05371C21.6779 9.11071 21.8629 9.45888 21.9189 9.84375C22.1419 11.3935 21.8761 12.5289 21.6191 12.7881C20.9321 14.0041 18.9498 15.1831 17.9678 14.9961C15.1332 14.9961 14.5195 14.9218 14.2734 15.3916L13.4102 17.627C12.8332 18.8569 10.81 21.2827 7.41602 20.9707C4.0222 20.6587 2.54725 17.9453 2.24414 16.6572C1.94116 15.8333 1.65383 13.6143 3.10352 11.5254C4.55152 9.43839 7.06809 8.86498 8.53809 9.00098H11.0605C11.5885 9.09097 11.7339 9.31003 12.3877 10.3428C12.5067 10.6668 14.4422 10.449 14.9512 10.502C15.5088 9.96095 14.9512 8.85119 16.1904 9.00781ZM8.08398 13C7.55357 13 7.04499 13.2109 6.66992 13.5859C6.29486 13.961 6.084 14.4696 6.08398 15C6.08398 15.5304 6.29485 16.039 6.66992 16.4141C7.04499 16.7891 7.55355 17 8.08398 17C8.6144 17 9.12298 16.7891 9.49805 16.4141C9.87309 16.039 10.084 15.5304 10.084 15C10.084 14.4696 9.87311 13.961 9.49805 13.5859C9.12298 13.2109 8.6144 13 8.08398 13Z" fill="#B7FC06"/>
<path d="M13.494 5.001V3M10.998 6.002L10 5.002M15.989 6.002L16.987 5.002" stroke="#B7FC06" stroke-width="1.5" stroke-linecap="round" stroke-linejoin="round"/>
</svg>
