<svg width="20" height="18" viewBox="0 0 20 18" fill="none" xmlns="http://www.w3.org/2000/svg">
<path d="M7.38043 4.5856L6.68434 5.2817C6.09907 5.86698 6.0985 6.81571 6.68305 7.40171L14.3358 15.0732C14.9213 15.6602 15.8721 15.6608 16.4584 15.0745L17.1667 14.3661M7.38043 4.5856L17.1667 14.3661M7.38043 4.5856L10.9967 0.960493C11.2595 0.697043 11.7117 0.805113 11.9013 1.12527C12.6851 2.44831 14.0401 2.61391 14.9702 2.46717C15.2517 2.42276 15.5431 2.57444 15.6212 2.84846L17.3744 8.99973C17.4123 9.13262 17.4833 9.25368 17.5809 9.35151C18.8488 10.6225 18.8488 12.6799 17.5809 13.9509L17.1667 14.3661" stroke="#000127" stroke-width="1.5"/>
<path d="M3.75 15.75H10.875M2.25 12.75H7.875M0.75 9.75H4.875" stroke="#000127" stroke-width="1.5" stroke-linecap="round"/>
</svg>
