<svg width="24" height="24" viewBox="0 0 24 24" fill="none" xmlns="http://www.w3.org/2000/svg">
<path d="M5 7C3.4 7 3 6.5 3 5V18.5C3 20 3.5 21 5 21H19.5C20.5 21 21 21 21 19.5V16C21.5 16 22 16 22 15.5V13C22 12.5 22 12 21 12V8.5C21 8 21 7 19.5 7H5Z" fill="#B7FC06" stroke="#B7FC06" stroke-width="2"/>
<path d="M19 4V7H5C4.46957 7 3.96086 6.78929 3.58579 6.41421C3.21071 6.03914 3 5.53043 3 5C3 4.46957 3.21071 3.96086 3.58579 3.58579C3.96086 3.21071 4.46957 3 5 3H18C18.2652 3 18.5196 3.10536 18.7071 3.29289C18.8946 3.48043 19 3.73478 19 4Z" stroke="#B7FC06" stroke-width="2" stroke-linecap="round" stroke-linejoin="round"/>
<path d="M18 12H21C21.2652 12 21.5196 12.1054 21.7071 12.2929C21.8946 12.4804 22 12.7348 22 13V15C22 15.2652 21.8946 15.5196 21.7071 15.7071C21.5196 15.8946 21.2652 16 21 16H18C17.4696 16 16.9609 15.7893 16.5858 15.4142C16.2107 15.0391 16 14.5304 16 14C16 13.4696 16.2107 12.9609 16.5858 12.5858C16.9609 12.2107 17.4696 12 18 12Z" fill="#000127"/>
</svg>
