<svg width="100" height="83" viewBox="0 0 100 83" fill="none" xmlns="http://www.w3.org/2000/svg">
<path d="M100 7.698L80.9697 42.867L70.6098 37.302L78.711 22.332L43.6922 45L35.3049 37.302L43.4061 22.332L8.38729 45L0 37.302L9.95633 18.9C12.6366 21.699 16.4132 23.445 20.5933 23.445C26.755 23.445 32.0434 19.656 34.2298 14.289L56.3078 0L64.6951 7.698L56.5939 22.668L91.6127 0L100 7.698Z" fill="#B7FC06"/>
<path d="M29.4233 8.793C29.4233 13.65 25.472 17.586 20.5963 17.586C15.7205 17.586 11.7693 13.65 11.7693 8.793C11.7693 3.936 15.7205 0 20.5963 0C25.472 0 29.4233 3.939 29.4233 8.793Z" fill="#B7FC06"/>
<path d="M5.00233 69.0023H8.97285L13.025 77.2493L17.0561 69.0023H21.0266V83H17.7929L17.7719 74.0345L14.2 81.6026H11.8452L8.25242 74.0345V83H5V69.0023H5.00233Z" fill="white"/>
<path d="M28.2914 69.0023H32.0428L37.9088 83H34.0176L30.0657 72.6557L26.0346 83H22.2832L28.2891 69.0023H28.2914ZM25.876 77.7276H34.0386V80.4828H25.876V77.7276Z" fill="white"/>
<path d="M36.6125 69.0023H40.2636L43.5767 75.0517L46.8105 69.0023H50.4616L43.7959 81.5023H43.3366L36.6125 69.0023ZM41.7605 76.8504H45.4116V83H41.7605V76.8504Z" fill="white"/>
<path d="M57.7453 69.0023C58.8504 69.0023 59.8576 69.1726 60.7692 69.5109C61.6808 69.8492 62.4665 70.3298 63.124 70.948C63.7815 71.5662 64.2921 72.3034 64.6511 73.155C65.0102 74.0065 65.1897 74.9513 65.1897 75.9895C65.1897 77.0277 65.0055 77.9935 64.6418 78.845C64.2758 79.6966 63.7605 80.4361 63.096 81.0613C62.4316 81.6866 61.6319 82.1671 60.7016 82.4984C59.769 82.832 58.7385 82.9977 57.6077 82.9977H51.7207V69H57.7476L57.7453 69.0023ZM57.8455 80.0838C58.3771 80.0838 58.8644 79.9882 59.3027 79.7945C59.741 79.6009 60.1234 79.3256 60.4498 78.9663C60.7762 78.6071 61.0257 78.1778 61.1982 77.6786C61.3707 77.1793 61.457 76.6311 61.457 76.0315C61.457 75.4319 61.3637 74.8627 61.1772 74.3634C60.9907 73.8642 60.7272 73.4326 60.3892 73.0663C60.0511 72.7 59.6501 72.4201 59.1908 72.2288C58.7315 72.0352 58.2232 71.9395 57.6637 71.9395H55.3695V80.0862H57.8432L57.8455 80.0838Z" fill="white"/>
<path d="M71.1745 69.0023H74.9259L80.7919 83H76.9006L72.9487 72.6557L68.9176 83H65.1663L71.1722 69.0023H71.1745ZM68.7614 77.7276H76.9239V80.4828H68.7614V77.7276Z" fill="white"/>
<path d="M82.0509 69.0023H85.2637L92.5869 78.7867L91.6287 79.1063V69.0023H95V83H91.8082L84.485 73.2553L85.4619 72.9357V83H82.0486V69.0023H82.0509Z" fill="white"/>
</svg>
