<svg width="23" height="21" viewBox="0 0 23 21" fill="none" xmlns="http://www.w3.org/2000/svg">
<path d="M5.636 16.8639C7.10845 18.3364 9.04594 19.2527 11.1183 19.4567C13.1906 19.6607 15.2696 19.1398 17.0009 17.9827C18.7322 16.8256 20.0087 15.104 20.6129 13.1112C21.217 11.1184 21.1115 8.97776 20.3142 7.05408C19.5169 5.13039 18.0772 3.5427 16.2404 2.56158C14.4037 1.58045 12.2835 1.2666 10.2413 1.67352C8.19909 2.08043 6.36116 3.18293 5.04073 4.79312C3.72031 6.40332 2.99909 8.42157 3 10.5039V12.4999" stroke="#B7FC06" stroke-width="3" stroke-linecap="round" stroke-linejoin="round"/>
<path d="M1 10.5L3 12.5L5 10.5M11 6.5V11.5H16" stroke="#B7FC06" stroke-width="3" stroke-linecap="round" stroke-linejoin="round"/>
</svg>
