<svg width="45" height="45" viewBox="0 0 45 45" fill="none" xmlns="http://www.w3.org/2000/svg">
<path d="M22.4999 29.9999C11.6999 29.9999 9.78745 19.2374 9.44995 10.6987C9.35432 8.32494 9.30745 7.13619 10.1999 6.03931C11.0906 4.94056 12.1574 4.76056 14.2931 4.40056C17.0059 3.95618 19.751 3.73855 22.4999 3.74994C25.8449 3.74994 28.5993 4.04431 30.7068 4.40056C32.8424 4.76056 33.9093 4.94056 34.8018 6.03931C35.6943 7.13806 35.6456 8.32494 35.5518 10.6987C35.2143 19.2374 33.3018 29.9999 22.5018 29.9999H22.4999Z" stroke="#B7FC06" stroke-width="3"/>
<path d="M22.5 30V35.625" stroke="#B7FC06" stroke-width="3" stroke-linecap="round"/>
<path d="M29.0625 41.25H15.9375L16.575 38.07C16.6599 37.6451 16.8894 37.2627 17.2244 36.9879C17.5594 36.7131 17.9792 36.5628 18.4125 36.5625H26.5875C27.0208 36.5628 27.4406 36.7131 27.7756 36.9879C28.1106 37.2627 28.3401 37.6451 28.425 38.07L29.0625 41.25Z" stroke="#B7FC06" stroke-width="3" stroke-linecap="round" stroke-linejoin="round"/>
<path d="M35.625 9.375L37.4044 9.9675C39.2606 10.5862 40.1887 10.8956 40.7194 11.6325C41.25 12.3694 41.25 13.35 41.25 15.3037V15.4406C41.25 17.0531 41.25 17.8613 40.8619 18.5213C40.4737 19.1813 39.7669 19.5731 38.3569 20.3587L32.8125 23.4375M9.375 9.375L7.59563 9.9675C5.73938 10.5862 4.81125 10.8956 4.28062 11.6325C3.75 12.3694 3.75 13.35 3.75 15.3037V15.4406C3.75 17.0531 3.75 17.8613 4.13813 18.5213C4.52625 19.1813 5.23313 19.5731 6.64312 20.3587L12.1875 23.4375" stroke="#B7FC06" stroke-width="3"/>
<path d="M20.8988 11.2931C21.6113 10.0125 21.9675 9.375 22.5 9.375C23.0325 9.375 23.3888 10.0125 24.1013 11.2931L24.285 11.6231C24.4875 11.9869 24.5888 12.1669 24.7463 12.2869C24.9057 12.4069 25.1025 12.4519 25.4963 12.54L25.8525 12.6225C27.2363 12.9356 27.9282 13.0912 28.0932 13.62C28.2582 14.1487 27.7857 14.7019 26.8425 15.8044L26.5988 16.0894C26.3307 16.4025 26.1957 16.5581 26.1357 16.7531C26.0757 16.9481 26.0963 17.1563 26.1357 17.5744L26.1732 17.955C26.3157 19.4269 26.3869 20.1638 25.9575 20.49C25.5263 20.8163 24.8775 20.5181 23.5819 19.9219L23.2482 19.7681C22.8788 19.5994 22.695 19.515 22.5 19.515C22.305 19.515 22.1213 19.5994 21.7519 19.7681L21.4182 19.9219C20.1225 20.52 19.4738 20.8163 19.0425 20.49C18.6113 20.1638 18.6844 19.4269 18.8269 17.955L18.8644 17.5744C18.9038 17.1563 18.9244 16.9481 18.8644 16.7531C18.8044 16.5581 18.6694 16.4025 18.4013 16.0894L18.1575 15.8044C17.2144 14.7019 16.7419 14.1506 16.9069 13.62C17.0719 13.0912 17.7638 12.9356 19.1475 12.6225L19.5038 12.54C19.8975 12.4519 20.0944 12.4087 20.2538 12.2869C20.4113 12.1669 20.5125 11.9869 20.715 11.6231L20.8988 11.2931Z" stroke="#B7FC06" stroke-width="3"/>
<path d="M33.75 41.25H11.25" stroke="#B7FC06" stroke-width="3" stroke-linecap="round"/>
</svg>
