<svg width="45" height="45" viewBox="0 0 45 45" fill="none" xmlns="http://www.w3.org/2000/svg">
<path d="M35.9717 15.3362C37.4155 15.3271 38.7535 15.3402 39.7412 15.4426L40.1416 15.4915L40.1436 15.4924C41.7721 15.7335 42.372 17.1239 42.5518 18.0608L42.582 18.2415L42.583 18.2434C42.8107 19.8258 42.7929 21.2265 42.6396 22.3313C42.5632 22.8819 42.4502 23.3829 42.3037 23.8079C42.1938 24.1266 42.025 24.5162 41.7607 24.8489C40.9316 26.2364 39.4993 27.4739 38.0928 28.3196C37.351 28.7655 36.5624 29.1362 35.7969 29.3723C35.1126 29.5834 34.336 29.7181 33.5889 29.6165C30.9241 29.6157 29.442 29.5846 28.5186 29.6536C28.3047 29.6696 28.1518 29.6898 28.043 29.7102L26.543 33.5911C26.5304 33.6236 26.5167 33.6562 26.502 33.6877C25.2669 36.3203 20.9933 41.478 13.7676 40.8137C6.59612 40.1544 3.45568 34.4597 2.76465 31.6418C2.08633 29.6825 1.58582 25.0793 4.58789 20.7542C7.66174 16.324 12.9068 15.1171 16.0557 15.3762H20.7393L20.8652 15.3821C20.9073 15.3856 20.9495 15.3906 20.9912 15.3977C21.3247 15.4545 21.6845 15.5466 22.0469 15.7288C22.4173 15.9151 22.7198 16.1601 22.9863 16.4426C23.3868 16.8673 23.7833 17.4713 24.249 18.2043C24.5202 18.2288 24.8908 18.2385 25.3359 18.2327C25.8451 18.226 26.3648 18.2042 26.8643 18.1887C26.9424 18.1863 27.0231 18.186 27.1045 18.1838C27.1146 18.1317 27.1286 18.0742 27.1406 18.009C27.1691 17.8545 27.2082 17.6349 27.2646 17.4192C27.3755 16.9961 27.6186 16.3029 28.3076 15.8264C28.952 15.3808 29.7105 15.3153 30.4258 15.3899C32.403 15.389 34.273 15.3469 35.9717 15.3362ZM35.9912 18.3362C34.3622 18.3465 32.3476 18.3899 30.3584 18.3899C30.2956 18.3899 30.2322 18.386 30.1699 18.3782C30.1552 18.3763 30.1404 18.3758 30.127 18.3743C30.117 18.4252 30.1036 18.4834 30.0908 18.553C30.0617 18.7112 30.0214 18.9319 29.9639 19.1565C29.8475 19.6105 29.6237 20.2379 29.0771 20.7678C28.7585 21.0768 28.3194 21.2287 27.8779 21.1829C27.7614 21.1708 27.4673 21.1709 26.957 21.1868C26.5011 21.2009 25.9206 21.2255 25.376 21.2327C24.839 21.2397 24.2468 21.2326 23.751 21.1702C23.5102 21.1398 23.2079 21.0867 22.9199 20.9758C22.7271 20.9015 22.2154 20.6807 21.9199 20.1331C21.2974 19.1505 21.0202 18.7309 20.8037 18.5012C20.7619 18.4569 20.7345 18.4338 20.7207 18.4231C20.7084 18.4136 20.7024 18.41 20.6992 18.4084C20.6943 18.4061 20.6656 18.3946 20.583 18.3762H16.0088C15.9627 18.3762 15.916 18.3746 15.8701 18.3704C13.4956 18.1509 9.37888 19.1118 7.05273 22.4641H7.05176C4.82097 25.678 5.12442 29.0662 5.5332 30.4622L5.61523 30.7141L5.66797 30.8879C6.14704 32.9244 8.54375 37.3208 14.042 37.8264C19.5108 38.3291 22.816 34.4396 23.7676 32.4485L25.3643 28.3186C25.3846 28.2659 25.4084 28.2144 25.4346 28.1643C25.705 27.6477 26.1184 27.2471 26.6963 26.9963C27.1899 26.7822 27.7492 26.7032 28.2949 26.6624C28.8368 26.6219 29.539 26.6107 30.4287 26.6096L33.6895 26.6174L33.8311 26.6243C33.8777 26.6287 33.9246 26.635 33.9707 26.6438C34.0903 26.6665 34.3979 26.664 34.9131 26.5051C35.4022 26.3542 35.9687 26.0959 36.5469 25.7483C37.7353 25.0337 38.7562 24.0773 39.2295 23.2395L39.3398 23.0715C39.3559 23.0504 39.3745 23.0313 39.3916 23.011C39.3976 22.9994 39.4276 22.9459 39.4678 22.8293C39.5371 22.628 39.6128 22.324 39.6689 21.9192C39.7809 21.1124 39.8034 19.9958 39.6133 18.6731C39.5992 18.5762 39.5788 18.4989 39.5586 18.4417C38.8004 18.3494 37.5805 18.3262 35.9912 18.3362Z" fill="#B7FC06"/>
<path d="M15 31.875C15.9946 31.875 16.9484 31.4799 17.6517 30.7766C18.3549 30.0734 18.75 29.1196 18.75 28.125C18.75 27.1304 18.3549 26.1766 17.6517 25.4734C16.9484 24.7701 15.9946 24.375 15 24.375C14.0054 24.375 13.0516 24.7701 12.3483 25.4734C11.6451 26.1766 11.25 27.1304 11.25 28.125C11.25 29.1196 11.6451 30.0734 12.3483 30.7766C13.0516 31.4799 14.0054 31.875 15 31.875Z" stroke="#B7FC06" stroke-width="3" stroke-linejoin="round"/>
<path d="M25.3012 9.37687V5.625M20.6213 11.2537L18.75 9.37875M29.9794 11.2537L31.8506 9.37875" stroke="#B7FC06" stroke-width="3" stroke-linecap="round" stroke-linejoin="round"/>
</svg>
