<svg width="18" height="18" viewBox="0 0 18 18" fill="none" xmlns="http://www.w3.org/2000/svg">
<path d="M8.99998 11.9999C4.67998 11.9999 3.91498 7.69493 3.77998 4.27943C3.74173 3.32993 3.72298 2.85443 4.07998 2.41568C4.43623 1.97618 4.86298 1.90418 5.71723 1.76018C6.80235 1.58242 7.9004 1.49537 8.99998 1.49993C10.338 1.49993 11.4397 1.61768 12.2827 1.76018C13.137 1.90418 13.5637 1.97618 13.9207 2.41568C14.2777 2.85518 14.2582 3.32993 14.2207 4.27943C14.0857 7.69493 13.3207 11.9999 9.00073 11.9999H8.99998Z" fill="#B7FC06" stroke="#B7FC06"/>
<path d="M9 12V14.25" stroke="#B7FC06" stroke-linecap="round"/>
<path d="M11.625 16.5H6.375L6.63 15.228C6.66397 15.058 6.75576 14.9051 6.88975 14.7952C7.02375 14.6852 7.19168 14.6251 7.365 14.625H10.635C10.8083 14.6251 10.9763 14.6852 11.1102 14.7952C11.2442 14.9051 11.336 15.058 11.37 15.228L11.625 16.5Z" fill="#B7FC06" stroke="#B7FC06" stroke-linecap="round" stroke-linejoin="round"/>
<path d="M14.25 3.75L14.9617 3.987C15.7042 4.2345 16.0755 4.35825 16.2877 4.653C16.5 4.94775 16.5 5.34 16.5 6.1215V6.17625C16.5 6.82125 16.5 7.1445 16.3447 7.4085C16.1895 7.6725 15.9068 7.82925 15.3428 8.1435L13.125 9.375M3.75 3.75L3.03825 3.987C2.29575 4.2345 1.9245 4.35825 1.71225 4.653C1.5 4.94775 1.5 5.34 1.5 6.1215V6.17625C1.5 6.82125 1.5 7.1445 1.65525 7.4085C1.8105 7.6725 2.09325 7.82925 2.65725 8.1435L4.875 9.375" stroke="#B7FC06"/>
<path d="M8.35947 4.51725C8.64447 4.005 8.78697 3.75 8.99997 3.75C9.21297 3.75 9.35547 4.005 9.64047 4.51725L9.71397 4.64925C9.79497 4.79475 9.83547 4.86675 9.89847 4.91475C9.96222 4.96275 10.041 4.98075 10.1985 5.016L10.341 5.049C10.8945 5.17425 11.1712 5.2365 11.2372 5.448C11.3032 5.6595 11.1142 5.88075 10.737 6.32175L10.6395 6.43575C10.5322 6.561 10.4782 6.62325 10.4542 6.70125C10.4302 6.77925 10.4385 6.8625 10.4542 7.02975L10.4692 7.182C10.5262 7.77075 10.5547 8.0655 10.383 8.196C10.2105 8.3265 9.95097 8.20725 9.43272 7.96875L9.29922 7.90725C9.15147 7.83975 9.07797 7.806 8.99997 7.806C8.92197 7.806 8.84847 7.83975 8.70072 7.90725L8.56722 7.96875C8.04897 8.208 7.78947 8.3265 7.61697 8.196C7.44447 8.0655 7.47372 7.77075 7.53072 7.182L7.54572 7.02975C7.56147 6.8625 7.56972 6.77925 7.54572 6.70125C7.52172 6.62325 7.46772 6.561 7.36047 6.43575L7.26297 6.32175C6.88572 5.88075 6.69672 5.66025 6.76272 5.448C6.82872 5.2365 7.10547 5.17425 7.65897 5.049L7.80147 5.016C7.95897 4.98075 8.03772 4.9635 8.10147 4.91475C8.16447 4.86675 8.20497 4.79475 8.28597 4.64925L8.35947 4.51725Z" fill="#000127"/>
<path d="M13.5 16.5H4.5" stroke="#B7FC06" stroke-linecap="round"/>
</svg>
