<svg width="50" height="46" viewBox="0 0 50 46" fill="none" xmlns="http://www.w3.org/2000/svg">
<path d="M18.0761 11.5764L14.7468 14.9057C14.1616 15.491 14.161 16.4397 14.7456 17.0257L37.0554 39.3903C37.641 39.9773 38.5918 39.9779 39.1781 39.3916L42.5418 36.0277M18.0761 11.5764L42.5418 36.0277M18.0761 11.5764L27.9756 1.65263C28.2384 1.38918 28.6896 1.49747 28.8341 1.84038C30.8396 6.59907 35.3315 6.75666 37.8181 6.12314C38.0942 6.0528 38.3849 6.2052 38.463 6.47923L43.1344 22.8694C43.1809 23.0326 43.2683 23.1814 43.3881 23.3015L46.4945 26.4155C48.0519 27.9768 48.0519 30.5041 46.4945 32.0654L42.5418 36.0277" stroke="#B7FC06" stroke-width="3"/>
<path d="M9 39.4878H26.8125M5.25 31.9878H19.3125M1.5 24.4878H11.8125" stroke="#B7FC06" stroke-width="3" stroke-linecap="round"/>
</svg>
