<svg width="45" height="45" viewBox="0 0 45 45" fill="none" xmlns="http://www.w3.org/2000/svg">
<path d="M20.8506 29.0166V31.1055L19.6436 32.3486L20.8535 33.5938V35.6836L18.6318 37.9717H16.4795L13.666 35.0742L10.2979 38.5449H8.14551L5.92383 36.2568V34.167L9.35449 30.6328L6.48047 27.6738V25.584L8.70215 23.2959L10.8535 23.2949L11.999 24.4736L13.1436 23.2949L15.2959 23.2939L20.8506 29.0166ZM13.4326 6.00488L14.5078 6.45996L31.999 24.4756L33.1465 23.2949H35.2979L37.5215 25.584V27.6738L34.6465 30.6338L38.0762 34.167V36.2568L35.8545 38.5449H33.7021L30.333 35.0752L27.5225 37.9717L25.3701 37.9727L23.1465 35.6846V33.5947L24.3535 32.3496L6.78613 14.2588L6.3623 13.2148L6.35938 7.50098L7.86035 6L13.4326 6.00488ZM36.1436 6.00488L37.6426 7.50391L37.6455 13.2051L37.2217 14.251L30.8525 20.8076H28.7012L23.1445 15.0879V12.9971L29.499 6.45508L30.5762 6L36.1436 6.00488Z" stroke="#B7FC06" stroke-width="3" stroke-linejoin="bevel"/>
</svg>
