<svg width="18" height="18" viewBox="0 0 18 18" fill="none" xmlns="http://www.w3.org/2000/svg">
<path d="M5.28609 10.0545L7.93734 12.7065L6.87759 13.767L7.93884 14.8282L6.87834 15.8888L5.02209 14.0325L2.90034 16.1542L1.83984 15.0938L3.96159 12.9713L2.10534 11.1158L3.16584 10.0552L4.22634 11.115L5.28609 10.0545ZM2.25009 2.25L4.90959 2.25225L13.7723 11.1158L14.8336 10.0552L15.8948 11.1158L14.0386 12.972L16.1596 15.0938L15.0991 16.1542L12.9773 14.0325L11.1218 15.8888L10.0606 14.8282L11.1211 13.767L2.25159 4.89825L2.25009 2.25ZM13.0928 2.25L15.7501 2.25225L15.7516 4.8945L12.7118 7.9335L10.0598 5.28225L13.0928 2.25Z" fill="#B7FC06"/>
</svg>
