<svg width="22" height="21" viewBox="0 0 22 21" fill="none" xmlns="http://www.w3.org/2000/svg">
<path d="M17.0268 17.7624L7.74555 8.45835C7.161 7.87235 7.16157 6.92362 7.74684 6.33834L8.7355 5.34966L13.0499 1.0247C13.3127 0.761252 13.7646 0.868681 13.9431 1.19521C14.869 2.88937 16.5638 3.06342 17.6761 2.86369C17.9565 2.81332 18.2477 2.96516 18.3258 3.23919L20.3951 10.4995C20.4393 10.6545 20.5222 10.7958 20.6361 10.9099C22.1153 12.3927 22.1153 14.793 20.6361 16.2758L20.1528 16.7603L19.1495 17.7637C18.5632 18.35 17.6124 18.3494 17.0268 17.7624Z" fill="#B7FC06"/>
<path d="M8.875 5.6875L20.25 16.625" stroke="#000127" stroke-linecap="square"/>
<path d="M4.5 18.375H12.8125M2.75 14.875H9.3125M1 11.375H5.8125" stroke="#B7FC06" stroke-width="2" stroke-linecap="round"/>
</svg>
